<svg version="1.0" xmlns="http://www.w3.org/2000/svg"
 width="1024.000000pt" height="1024.000000pt" viewBox="0 0 1024.000000 1024.000000"
 preserveAspectRatio="xMidYMid meet">

<g transform="translate(0.000000,1024.000000) scale(0.100000,-0.100000)"
fill="#000000" stroke="none">
<path d="M4935 8837 c-105 -210 -190 -383 -191 -385 -1 -1 -55 -12 -120 -22
-177 -30 -439 -96 -614 -155 -794 -270 -1457 -826 -1860 -1563 -167 -305 -279
-658 -331 -1041 -22 -163 -24 -231 -8 -231 6 0 104 22 217 49 114 27 259 61
322 75 63 15 169 39 235 54 l120 27 62 180 c67 193 183 441 278 595 188 303
444 573 720 757 224 150 393 226 691 312 l72 21 153 293 c84 160 219 423 299
583 l146 291 289 -574 c159 -315 296 -579 304 -587 9 -8 61 -26 116 -41 217
-58 419 -152 633 -292 261 -172 513 -427 709 -718 117 -175 255 -465 332 -701
l39 -119 168 -37 c243 -54 377 -85 562 -130 90 -22 166 -37 169 -34 8 8 -16
228 -42 380 -101 589 -411 1175 -861 1631 -429 435 -935 732 -1506 884 -113
30 -365 83 -467 98 l-53 8 -192 382 c-106 210 -194 384 -197 387 -3 3 -90
-167 -194 -377z m-386 -759 c-27 -51 -80 -152 -116 -224 l-67 -132 -77 -21
c-187 -51 -440 -171 -639 -303 -162 -108 -265 -193 -416 -343 -314 -313 -539
-671 -688 -1094 -20 -58 -38 -106 -39 -106 -1 -1 -31 -8 -67 -15 -36 -7 -130
-28 -209 -47 -79 -19 -146 -32 -149 -28 -9 8 35 181 85 340 191 594 562 1104
1098 1507 345 258 723 430 1165 528 188 42 179 46 119 -62z m1232 67 c415 -84
730 -215 1084 -450 588 -391 1038 -995 1233 -1660 30 -100 72 -268 68 -272 -1
-2 -77 15 -167 36 -90 22 -183 43 -206 47 -39 6 -43 10 -59 53 -105 291 -207
497 -357 721 -208 311 -473 575 -777 775 -212 139 -375 217 -605 291 l-118 38
-28 60 c-15 34 -65 134 -112 224 -46 89 -83 162 -82 162 1 0 58 -11 126 -25z"/>
<path d="M5085 7808 c-49 -75 -460 -681 -725 -1068 -334 -488 -624 -919 -644
-958 -9 -17 -78 -79 -163 -145 -82 -63 -219 -171 -306 -240 l-158 -125 -112
-6 c-62 -4 -254 -13 -427 -21 -646 -31 -1110 -65 -1163 -84 -16 -6 1 -10 58
-15 816 -67 1204 -95 1521 -112 l131 -6 156 -132 c86 -72 156 -136 156 -141 1
-6 -75 -139 -169 -295 -93 -157 -196 -333 -227 -392 -32 -59 -60 -108 -63
-108 -7 0 -61 123 -104 235 -43 112 -97 297 -127 433 l-23 102 -123 0 c-123 0
-123 0 -119 -22 3 -13 15 -70 27 -128 50 -241 136 -493 250 -726 l69 -142 -90
-146 c-50 -80 -98 -161 -107 -181 -9 -19 -19 -35 -22 -35 -13 0 -160 250 -231
390 -157 313 -254 634 -294 974 l-11 101 -128 3 -127 3 0 -43 c1 -109 57 -408
115 -607 207 -709 653 -1336 1263 -1776 133 -95 278 -181 451 -269 311 -157
563 -236 971 -306 90 -15 166 -32 168 -38 8 -26 342 -690 355 -707 14 -18 27
5 200 351 l185 370 113 17 c565 88 1100 310 1534 637 636 478 1070 1146 1239
1905 36 162 72 425 62 451 -5 12 -28 14 -123 12 -137 -3 -125 10 -142 -152
-25 -220 -119 -565 -216 -786 -81 -186 -272 -530 -293 -530 -4 0 -58 83 -119
185 l-112 185 29 47 c39 63 126 267 179 418 36 102 116 407 135 513 l6 32
-124 0 -124 0 -7 -37 c-15 -85 -77 -315 -113 -423 -42 -124 -121 -310 -131
-310 -4 0 -24 33 -46 73 -21 39 -124 215 -227 390 -104 175 -188 322 -186 327
2 4 76 69 166 144 121 101 169 136 190 136 149 1 1060 69 1475 110 54 6 105
10 114 10 11 0 13 3 8 9 -24 22 -685 71 -1385 102 -134 6 -249 14 -255 18 -5
4 -57 46 -115 92 -57 46 -188 149 -291 229 l-187 145 -216 322 c-213 318 -439
651 -674 993 -66 96 -214 313 -328 483 -115 169 -211 307 -215 307 -3 0 -19
-19 -34 -42z m122 -515 c44 -65 157 -233 253 -373 95 -140 243 -358 328 -485
86 -126 182 -267 214 -312 32 -44 58 -83 58 -85 0 -2 -39 15 -87 38 -357 172
-784 228 -1189 159 -162 -28 -386 -101 -526 -171 -38 -19 -68 -32 -68 -29 0 3
69 105 154 228 176 254 426 621 636 932 80 118 146 214 147 215 1 0 37 -53 80
-117z m162 -1298 c361 -51 724 -218 1131 -518 129 -95 420 -328 419 -336 0 -7
-160 -136 -314 -253 -335 -255 -626 -414 -920 -503 -605 -183 -1183 -85 -1776
301 -196 128 -599 449 -582 464 28 23 374 288 448 342 414 303 793 468 1180
512 83 9 322 4 414 -9z m-1712 -1419 c49 -41 254 -172 368 -235 317 -174 745
-291 1071 -291 465 0 973 172 1431 487 51 34 96 63 100 63 5 -1 40 -56 79
-123 98 -168 572 -956 595 -989 11 -14 19 -29 19 -32 0 -3 -992 -6 -2204 -6
l-2204 0 92 148 c51 81 184 298 296 482 111 184 228 377 259 427 31 51 59 93
63 93 3 0 19 -11 35 -24z m-339 -1457 c254 -235 588 -431 931 -546 l143 -48
110 -219 c60 -120 107 -221 104 -224 -17 -16 -305 45 -489 105 -333 107 -685
301 -951 526 -103 87 -306 289 -393 390 l-74 87 271 0 272 0 76 -71z m3312 47
c-160 -108 -418 -248 -575 -311 -38 -16 -137 -49 -220 -74 l-150 -46 -182
-365 c-181 -363 -347 -717 -359 -765 -4 -14 -11 -24 -16 -23 -5 2 -34 59 -64
128 -84 190 -488 1003 -505 1016 -8 7 -69 28 -136 48 -267 79 -516 195 -728
341 -50 34 -97 64 -105 68 -8 3 680 6 1530 6 l1545 1 -35 -24z m844 -66 c-100
-117 -293 -304 -421 -407 -250 -201 -586 -389 -878 -493 -164 -57 -527 -141
-544 -125 -3 3 46 106 109 228 l114 222 119 39 c225 74 453 186 657 321 106
70 286 213 339 269 l35 36 274 0 273 0 -77 -90z"/>
<path d="M5014 5870 c-146 -26 -265 -92 -373 -206 -126 -133 -180 -269 -181
-455 0 -262 138 -484 377 -603 104 -52 187 -69 313 -63 283 12 520 189 611
457 30 90 37 251 15 351 -51 228 -240 428 -470 498 -80 25 -218 34 -292 21z"/>
</g>
</svg>
